# xmcd
#
# Track frame offsets:
#	150
#	22850
#	44560
#	69611
#	88526
#	112758
#	133326
#	158285
#	180560
#	202380
#	225033
#	245915
#	268239
#	287205
#	291673
#	310570
#
# Disc length: 4382 seconds
#
# Revision: 2
# Processed by: cddbd v1.4PL0 Copyright (c) Steve Scherf et al.
# Submitted via: EZCDDA 4.3.2
#
DISCID=e7111c10
DTITLE=R.Kelly - Bestof R.Kelly
DYEAR=1900
DGENRE=
TTITLE0=If I Coold Turn The Back The Hands Of Time
TTITLE1=Satisfy You
TTITLE2=I´m Your Angel
TTITLE3=You Remid Me Of Something
TTITLE4=I Belive I Can Fly
TTITLE5=Did You Ever Thing
TTITLE6=I Can`t Sleep Baby
TTITLE7=Cothman City
TTITLE8=Down Low
TTITLE9=Home Alone
TTITLE10=(You To Be) Be Happy
TTITLE11=Half On A Baby
TTITLE12=Get Up On A Room
TTITLE13=Heaven If You Hear Me
TTITLE14=Money Makes The World Go Round
TTITLE15=All Of Days
EXTD=
EXTT0=
EXTT1=
EXTT2=
EXTT3=
EXTT4=
EXTT5=
EXTT6=
EXTT7=
EXTT8=
EXTT9=
EXTT10=
EXTT11=
EXTT12=
EXTT13=
EXTT14=
EXTT15=
PLAYORDER=
